<?xml version="1.0" encoding="UTF-8"?>
<svg xmlns="http://www.w3.org/2000/svg" xmlns:xlink="http://www.w3.org/1999/xlink" width="469pt" height="428pt" viewBox="0 0 469 428" version="1.1">
<g id="surface1">
<rect x="0" y="0" width="469" height="428" style="fill:rgb(98.826599%,98.826599%,98.826599%);fill-opacity:1;stroke:none;"/>
<path style=" stroke:none;fill-rule:nonzero;fill:rgb(5.099487%,5.099487%,5.099487%);fill-opacity:1;" d="M 170.859375 51.269531 C 224.03125 44.988281 277.691406 47.199219 331.011719 49.96875 C 338.058594 49.761719 345.089844 48.421875 352.140625 49.191406 C 358.179688 49.898438 363.589844 53.03125 368.429688 56.539063 C 378.179688 63.738281 386.359375 72.878906 393.308594 82.761719 C 401.53125 94.621094 403.320313 109.660156 411.609375 121.5 C 422.550781 136.730469 440 145.871094 450.398438 161.558594 C 457.421875 171.738281 458.609375 184.789063 457.28125 196.769531 C 456.128906 207.53125 450.488281 217.269531 443.210938 225.078125 C 433.488281 235.398438 422.328125 244.679688 415.070313 257.039063 C 410.289063 265.171875 408.449219 274.628906 403.761719 282.789063 C 392.601563 299.480469 376.308594 311.949219 359.300781 322.238281 C 334.699219 337.019531 307.929688 347.589844 282.238281 360.230469 C 270.171875 366.070313 258.578125 372.890625 246.21875 378.121094 C 234.808594 383.082031 222.320313 384.371094 210.191406 386.570313 C 199.640625 388.179688 189.339844 391.039063 178.929688 393.339844 C 153.398438 398.871094 127.109375 403.167969 100.941406 400.390625 C 83.058594 398.46875 64.878906 392.019531 52.320313 378.679688 C 47.441406 373.179688 42.890625 367.070313 40.339844 360.128906 C 38.859375 339.050781 41.730469 318.019531 44.480469 297.171875 C 47.082031 277.101563 48.648438 256.5 44.308594 236.550781 C 40.101563 220.75 30.121094 207.308594 25.101563 191.808594 C 21.167969 180.078125 20.289063 166.859375 24.910156 155.199219 C 32.390625 141.460938 47.261719 133.460938 54.109375 119.269531 C 58.011719 111.71875 58.78125 103.070313 58.511719 94.710938 C 70.75 82.46875 86.070313 73.730469 102.089844 67.429688 C 124.101563 58.769531 147.46875 54.179688 170.859375 51.269531 "/>
<path style=" stroke:none;fill-rule:nonzero;fill:rgb(98.826599%,98.826599%,98.826599%);fill-opacity:1;" d="M 147.640625 65.691406 C 200.710938 57.988281 254.480469 54.679688 308.078125 56.609375 C 320.71875 57.429688 333.441406 56.628906 346.039063 58.179688 C 356.699219 59.609375 366.320313 65.691406 373.230469 73.78125 C 389.621094 92.839844 394.691406 118.96875 411.429688 137.789063 C 404.238281 138.550781 397.058594 136.511719 389.898438 137.480469 C 387.75 137.671875 385.851563 138.761719 384.128906 139.980469 C 395.019531 138.609375 406.410156 139.011719 416.609375 143.449219 C 430.558594 149.171875 441.96875 161.199219 446.210938 175.75 C 449.480469 187.089844 447.710938 199.628906 441.859375 209.828125 C 435 221.851563 423.78125 230.96875 411.320313 236.710938 C 411.898438 236.980469 412.488281 237.238281 413.078125 237.511719 C 415.339844 236.660156 417.351563 235.320313 419.359375 234.011719 C 419.640625 234.589844 420.199219 235.761719 420.480469 236.339844 C 417.269531 238.441406 413.761719 240.269531 411.390625 243.390625 C 405.789063 250.21875 404.039063 259.101563 400.871094 267.128906 C 397.488281 276.449219 391.011719 284.199219 384.128906 291.160156 C 367.550781 307.199219 347.128906 318.410156 326.710938 328.761719 C 312.109375 335.898438 297.269531 342.539063 282.601563 349.539063 C 269.75 355.53125 257.769531 363.179688 244.878906 369.082031 C 242.019531 370.261719 239.171875 371.679688 236.058594 372 C 231.660156 372.039063 227.308594 370.769531 222.898438 371.28125 C 215.179688 372.101563 208 375.238281 200.730469 377.738281 C 185.671875 383.441406 169.738281 386.261719 153.871094 388.558594 C 136.011719 390.929688 117.851563 392 99.929688 389.699219 C 85.289063 387.71875 69.980469 383.488281 59.21875 372.769531 C 53.488281 366.660156 48.730469 358.589844 49.5 349.917969 C 49.308594 315.089844 58.628906 280.738281 55.769531 245.851563 C 54.570313 235.191406 52.839844 224.171875 47.191406 214.851563 C 42.738281 207.011719 36.378906 200.019531 34.230469 191.070313 C 32.160156 180.429688 31.988281 168.871094 36.851563 158.929688 C 42.949219 146.03125 56.878906 138.980469 62.648438 125.859375 C 65.769531 119.050781 66.03125 111.421875 65.589844 104.078125 C 80.710938 86.421875 101.851563 73.539063 124.808594 69.300781 C 140.480469 66.261719 156.339844 69.570313 172.058594 70.339844 C 203.648438 72.390625 234.441406 61.539063 266.019531 63.058594 C 280.550781 64.019531 294.738281 68.210938 307.878906 74.410156 C 322.378906 81.21875 335.460938 90.570313 348.980469 99.070313 C 353.308594 101.648438 357.558594 104.46875 362.28125 106.320313 C 348.078125 95.109375 333.488281 84.148438 317.539063 75.511719 C 300.789063 66.519531 282.070313 60.988281 263.019531 60.410156 C 231.449219 59.410156 200.550781 68.558594 168.980469 68 C 161.828125 67.769531 154.609375 67.371094 147.640625 65.691406 "/>
<path style=" stroke:none;fill-rule:nonzero;fill:rgb(5.099487%,5.099487%,5.099487%);fill-opacity:1;" d="M 225.140625 75.628906 C 250.378906 72.121094 276.660156 73.5 300.789063 82.148438 C 315.53125 87.410156 329.308594 95.5 340.789063 106.171875 C 344.511719 109.851563 348.449219 113.429688 351.25 117.898438 C 331.488281 100.148438 307.960938 85.941406 281.828125 80.109375 C 265.988281 76.410156 249.550781 75.730469 233.371094 77.199219 C 220.75 78.550781 208.769531 83.550781 196.019531 84.03125 C 172.621094 85.578125 149.210938 83.011719 126 80.171875 C 123.71875 79.949219 121.449219 79.511719 119.160156 79.601563 C 115.140625 81.621094 112.078125 85.308594 107.53125 86.308594 C 110.550781 81.238281 115.96875 77.921875 121.789063 77.230469 C 133.390625 75.871094 144.640625 79.78125 156.058594 81.019531 C 179.230469 83.078125 202.289063 79.03125 225.140625 75.628906 "/>
<path style=" stroke:none;fill-rule:nonzero;fill:rgb(5.099487%,5.099487%,5.099487%);fill-opacity:1;" d="M 242.058594 88.96875 C 265.390625 86.53125 289.769531 88.238281 311.488281 97.628906 C 321.558594 102.210938 331.960938 109.46875 334.828125 120.789063 C 327.558594 107.859375 313.71875 100.421875 299.949219 96.308594 C 278.910156 90.128906 256.640625 89.261719 234.878906 90.339844 C 237.191406 89.539063 239.621094 89.148438 242.058594 88.96875 "/>
<path style=" stroke:none;fill-rule:nonzero;fill:rgb(5.099487%,5.099487%,5.099487%);fill-opacity:1;" d="M 120.898438 97.121094 C 136.539063 92.019531 153.558594 91.789063 169.578125 95.230469 C 172.519531 95.871094 175.789063 95.890625 178.339844 97.671875 C 180.050781 98.589844 178.5 100.441406 178.148438 101.671875 C 163.871094 96 148.078125 94.050781 132.890625 96.449219 C 123.71875 98.101563 114.320313 101.941406 108.53125 109.558594 C 106.019531 112.730469 104.820313 116.609375 103.25 120.269531 C 103.550781 114.589844 105.660156 109.25 108.199219 104.238281 C 111.539063 100.609375 116.339844 98.75 120.898438 97.121094 "/>
<path style=" stroke:none;fill-rule:nonzero;fill:rgb(5.099487%,5.099487%,5.099487%);fill-opacity:1;" d="M 240.300781 94.121094 C 241.871094 92.589844 243.648438 93.929688 245.230469 94.640625 C 240.019531 97.578125 236.121094 102.488281 234.109375 108.109375 C 233.820313 111.460938 234.328125 114.910156 233.28125 118.179688 C 230.949219 113.988281 231.371094 108.980469 231.769531 104.390625 C 235.078125 101.351563 236.859375 97.011719 240.300781 94.121094 "/>
<path style=" stroke:none;fill-rule:nonzero;fill:rgb(5.099487%,5.099487%,5.099487%);fill-opacity:1;" d="M 166.761719 106.96875 C 168.019531 106.609375 169.28125 106.28125 170.558594 105.960938 C 171.878906 108.691406 173.429688 111.320313 175.539063 113.53125 C 175.449219 120.140625 175.628906 126.75 175.449219 133.359375 C 170.148438 128.601563 175.160156 121.058594 173.289063 115.171875 C 171.261719 112.308594 168.308594 110.179688 166.761719 106.96875 "/>
<path style=" stroke:none;fill-rule:nonzero;fill:rgb(5.099487%,5.099487%,5.099487%);fill-opacity:1;" d="M 265.148438 119.160156 C 281.539063 116.191406 299.148438 116.519531 314.609375 123.308594 C 324.46875 127.570313 332.96875 135.988281 335.199219 146.761719 C 332.558594 148.839844 329.53125 150.699219 326.070313 150.78125 C 318.148438 151.140625 310.820313 147.300781 302.988281 146.769531 C 281.289063 145.019531 259.851563 151.851563 241.011719 162.191406 C 236.210938 157.300781 228.089844 155.570313 225.710938 148.550781 C 223.878906 144.160156 227.25 140.171875 229.789063 136.910156 C 238.769531 126.71875 252.171875 121.851563 265.148438 119.160156 "/>
<path style=" stroke:none;fill-rule:nonzero;fill:rgb(98.826599%,98.826599%,98.826599%);fill-opacity:1;" d="M 245.558594 136.609375 C 253.710938 131.609375 263.101563 129.289063 272.121094 126.398438 C 270.980469 131.238281 274.101563 135.339844 274.78125 139.949219 C 268.578125 139.238281 262.410156 140.921875 257.109375 144.101563 C 251.398438 147.339844 245 151.898438 238.128906 149.179688 C 237.460938 143.738281 241.160156 139.21875 245.558594 136.609375 "/>
<path style=" stroke:none;fill-rule:nonzero;fill:rgb(5.099487%,5.099487%,5.099487%);fill-opacity:1;" d="M 122.128906 129.359375 C 134.390625 126.328125 147.378906 128.429688 159.140625 132.53125 C 167.070313 135.558594 175.351563 139.488281 180.089844 146.878906 C 185.050781 145.441406 190.660156 143.28125 195.539063 146.199219 C 195.441406 148.148438 195.511719 150.460938 193.878906 151.839844 C 189.988281 155.699219 183.488281 155.179688 180 159.648438 C 179.988281 166.648438 180.03125 173.648438 179.96875 180.648438 C 173.910156 187.390625 162.46875 188.710938 159.601563 198.261719 C 164.449219 206.660156 170.441406 215.699219 180.121094 218.898438 C 184.019531 219.199219 186.53125 215.609375 189.828125 214.160156 C 191.03125 214.871094 192.230469 215.601563 193.421875 216.339844 C 191.53125 221.011719 189.210938 226.039063 184.648438 228.640625 C 181.660156 230.28125 178.128906 229.210938 175.421875 227.539063 C 165.96875 221.621094 160.480469 211.238281 151.128906 205.199219 C 149.25 207.25 147.140625 210.050781 144.03125 209.761719 C 142.460938 207.699219 141.839844 205.121094 140.710938 202.820313 C 131.929688 205 124.769531 213.71875 115.128906 212.140625 C 136.390625 203.640625 153.039063 187.539063 171 173.890625 C 171 168.519531 171 163.140625 171 157.761719 C 162.570313 152.71875 152.550781 151.730469 142.96875 150.789063 C 130.519531 149.53125 117.589844 149.5 105.890625 144.511719 C 107.601563 136.671875 114.570313 131.128906 122.128906 129.359375 "/>
<path style=" stroke:none;fill-rule:nonzero;fill:rgb(98.826599%,98.826599%,98.826599%);fill-opacity:1;" d="M 310 135.261719 C 314.140625 134.539063 318.75 135.078125 321.910156 138.089844 C 323.308594 139.070313 323.089844 140.871094 323.089844 142.351563 C 320.101563 139.75 316.210938 139.851563 312.519531 139.328125 C 310.460938 139.128906 310.421875 136.789063 310 135.261719 "/>
<path style=" stroke:none;fill-rule:nonzero;fill:rgb(98.826599%,98.826599%,98.826599%);fill-opacity:1;" d="M 121.160156 137.960938 C 126.128906 138.238281 131.050781 137.269531 136.019531 137.25 C 138.410156 137.171875 140.628906 138.210938 142.328125 139.851563 C 138.179688 139.730469 134.050781 140.03125 129.921875 140.421875 C 126.839844 140.660156 123.300781 140.539063 121.160156 137.960938 "/>
<path style=" stroke:none;fill-rule:nonzero;fill:rgb(5.099487%,5.099487%,5.099487%);fill-opacity:1;" d="M 339.800781 137.769531 C 346.859375 136.921875 353.179688 141.820313 360.300781 140.269531 C 359.121094 147.320313 348.949219 148.898438 344.089844 144.621094 C 347.328125 144.121094 351.671875 145.601563 353.710938 142.269531 C 348.828125 141.890625 343.519531 141.359375 339.800781 137.769531 "/>
<path style=" stroke:none;fill-rule:nonzero;fill:rgb(5.099487%,5.099487%,5.099487%);fill-opacity:1;" d="M 68.878906 142.710938 C 75.941406 143.839844 82.980469 142.269531 89.941406 141.191406 C 94.050781 140.449219 98.550781 141.390625 101.46875 144.519531 C 88.910156 142.871094 75.800781 143.078125 63.871094 147.769531 C 53.890625 151.46875 44.808594 158.949219 41.089844 169.140625 C 37.691406 178.121094 38.699219 188.140625 41.609375 197.109375 C 42.289063 198.988281 42.761719 201.199219 44.5 202.421875 C 50.480469 206.941406 58.667969 206.96875 64.628906 211.460938 C 66.429688 212.648438 65.949219 214.828125 65.878906 216.671875 C 63.148438 214.910156 60.582031 212.851563 57.539063 211.648438 C 51.800781 209.148438 45.179688 207.949219 40.601563 203.371094 C 36.191406 193.660156 34.820313 182.371094 37.359375 171.949219 C 40.570313 158.429688 51.25 147.308594 64.140625 142.488281 C 65.679688 141.921875 67.308594 142.628906 68.878906 142.710938 "/>
<path style=" stroke:none;fill-rule:nonzero;fill:rgb(5.099487%,5.099487%,5.099487%);fill-opacity:1;" d="M 378.488281 143.710938 C 383.808594 142 389.5 142.601563 395.011719 142.460938 C 405.320313 142.378906 416.308594 144.769531 424.089844 151.949219 C 431.101563 158.601563 433.820313 168.460938 434.378906 177.839844 C 434.878906 183.191406 434.140625 188.53125 433.988281 193.871094 C 433.410156 193.21875 432.828125 192.570313 432.25 191.929688 C 433.078125 183.621094 432.859375 175.21875 432.011719 166.929688 C 428.621094 158.671875 422.378906 151.128906 413.878906 147.859375 C 402.621094 143.351563 390.269531 145.019531 378.488281 143.710938 "/>
<path style=" stroke:none;fill-rule:nonzero;fill:rgb(5.099487%,5.099487%,5.099487%);fill-opacity:1;" d="M 339.21875 149.199219 C 342.289063 147.589844 345.671875 149.988281 347.089844 152.730469 C 344.03125 152.839844 341.328125 151.28125 339.21875 149.199219 "/>
<path style=" stroke:none;fill-rule:nonzero;fill:rgb(5.099487%,5.099487%,5.099487%);fill-opacity:1;" d="M 366.890625 151.769531 C 379.839844 149.148438 394.058594 151.300781 404.949219 159.050781 C 414.828125 165.929688 421.710938 177.609375 421.070313 189.851563 C 420.878906 200.289063 414.960938 209.789063 407.140625 216.378906 C 404.050781 209.609375 408.140625 202.898438 410.398438 196.628906 C 413.308594 189.5 411.699219 181.371094 408.230469 174.75 C 404.808594 168.058594 398.269531 163.308594 391.089844 161.359375 C 384.699219 159.378906 377.929688 159.640625 371.339844 160.039063 C 364.640625 166.53125 355.691406 169.980469 346.828125 172.371094 C 335.199219 175.300781 322.980469 176.199219 311.109375 174.398438 C 303.121094 173.019531 294.671875 170.148438 289.558594 163.480469 C 286.789063 160.03125 285.898438 155.550781 285.738281 151.230469 C 296.109375 152.75 302.148438 162.800781 311.878906 165.871094 C 320.730469 168.671875 330.539063 167.710938 339.078125 164.261719 C 348.511719 160.460938 356.738281 153.75 366.890625 151.769531 "/>
<path style=" stroke:none;fill-rule:nonzero;fill:rgb(5.099487%,5.099487%,5.099487%);fill-opacity:1;" d="M 51.789063 162.628906 C 56.898438 158.238281 63.378906 156.019531 69.628906 153.800781 C 66.417969 160.589844 56.511719 159.679688 53.859375 166.929688 C 51.730469 173.441406 54.332031 180.578125 51.96875 187.121094 C 51.371094 186.25 50.78125 185.390625 50.167969 184.53125 C 50.28125 177.199219 51.429688 169.941406 51.789063 162.628906 "/>
<path style=" stroke:none;fill-rule:nonzero;fill:rgb(5.099487%,5.099487%,5.099487%);fill-opacity:1;" d="M 69.417969 164.390625 C 77.738281 160.410156 87.371094 162.101563 95.871094 164.609375 C 103.628906 167.050781 111.210938 170.601563 117.21875 176.191406 C 120.621094 174.351563 123.488281 171.578125 127.101563 170.109375 C 129.210938 169.46875 131.171875 170.429688 132.871094 171.578125 C 132.648438 175.75 131.140625 180.238281 127.128906 182.191406 C 119.140625 186.039063 109.980469 184.421875 101.421875 184.820313 C 101.121094 179.710938 98.589844 174.070313 93.210938 172.710938 C 82.25 169.96875 71.601563 175.398438 60.75 176.140625 C 61.917969 171.269531 64.691406 166.519531 69.417969 164.390625 "/>
<path style=" stroke:none;fill-rule:nonzero;fill:rgb(5.099487%,5.099487%,5.099487%);fill-opacity:1;" d="M 372.398438 168.410156 C 373.679688 166.679688 375.980469 166.839844 377.878906 166.570313 C 378.078125 171.339844 378.679688 176.398438 381.671875 180.320313 C 387.769531 188.691406 399.300781 190.53125 405.441406 198.871094 C 400.460938 203.441406 393.738281 199.878906 387.980469 199.519531 C 384.898438 198.96875 384.03125 202.679688 382.761719 204.71875 C 380.820313 207.890625 380.628906 211.699219 382.070313 215.101563 C 383.308594 217.199219 380.449219 218.101563 379.460938 219.449219 C 368.839844 230.191406 361.699219 243.691406 352.769531 255.75 C 345.75 265.53125 337.589844 274.570313 328.039063 281.929688 C 311.679688 294.558594 293.5 304.898438 274.140625 312.160156 C 255.910156 319.101563 236.328125 321.128906 217.019531 322.679688 C 194.75 324.179688 172.378906 324.289063 150.109375 322.699219 C 134.570313 321.421875 118.921875 319.648438 103.988281 314.980469 C 97.917969 312.96875 91.582031 310.601563 87.261719 305.660156 C 80.839844 298.449219 77.378906 289.191406 74.910156 280 C 69.960938 260.140625 69.320313 239.289063 72.128906 219.070313 C 73.429688 209.511719 78.121094 200.960938 82.609375 192.589844 C 84.78125 189.101563 83.628906 184.78125 84.96875 181.070313 C 85.761719 178.921875 88.410156 180.128906 90.082031 179.96875 C 94.082031 188.5 91.679688 198.308594 94.589844 207.078125 C 110.160156 222.578125 131.988281 230.121094 153.429688 232.828125 C 184.429688 236.46875 215.71875 231.679688 245.839844 224.371094 C 289.089844 213.539063 330.679688 196.96875 371 178.121094 C 371.089844 174.878906 370.441406 171.238281 372.398438 168.410156 "/>
<path style=" stroke:none;fill-rule:nonzero;fill:rgb(5.099487%,5.099487%,5.099487%);fill-opacity:1;" d="M 229.570313 191.941406 C 229.859375 186.300781 236 183.890625 240.898438 184.511719 C 247.078125 185.230469 253.808594 186.851563 258.300781 191.449219 C 259.738281 195.03125 259.238281 199.121094 259.160156 202.910156 C 258.570313 208.429688 256.710938 215.070313 251.128906 217.449219 C 248.488281 218.738281 245.648438 217.421875 243.058594 216.679688 C 243.058594 214.949219 242.691406 213.109375 243.5 211.5 C 245.019531 208.210938 249.128906 206.941406 250.300781 203.429688 C 251.21875 200.980469 250.378906 198.410156 249.929688 195.96875 C 243.371094 193.441406 235.980469 194.960938 229.570313 191.941406 "/>
<path style=" stroke:none;fill-rule:nonzero;fill:rgb(5.099487%,5.099487%,5.099487%);fill-opacity:1;" d="M 261.550781 191.609375 C 260.820313 189.5 260.199219 186.359375 262.851563 185.390625 C 263.550781 185.589844 264.929688 185.96875 265.621094 186.171875 C 264.691406 186.871094 263.761719 187.558594 262.828125 188.25 C 263.011719 190.789063 264.890625 192.890625 267.371094 193.421875 C 276.449219 195.671875 285.898438 192.671875 295.019531 194.328125 C 297.019531 194.511719 297.660156 196.339844 297.339844 198.128906 C 288.929688 193.449219 279.109375 197.179688 270.089844 196.320313 C 266.828125 196.109375 262.710938 195.109375 261.550781 191.609375 "/>
<path style=" stroke:none;fill-rule:nonzero;fill:rgb(5.099487%,5.099487%,5.099487%);fill-opacity:1;" d="M 50.378906 187.140625 C 50.871094 187.449219 51.871094 188.078125 52.371094 188.398438 C 55.019531 193.808594 60.820313 196.378906 64.761719 200.671875 C 61.28125 200.25 57.550781 199.609375 54.898438 197.109375 C 52.011719 194.621094 51.03125 190.730469 50.378906 187.140625 "/>
<path style=" stroke:none;fill-rule:nonzero;fill:rgb(98.826599%,98.826599%,98.826599%);fill-opacity:1;" d="M 333.039063 207.609375 C 347.71875 202.730469 359.480469 190.070313 375.550781 189.398438 C 375.800781 198.101563 371.761719 206.578125 365.199219 212.210938 C 356.058594 220.199219 343.988281 223.738281 332.179688 225.378906 C 335.070313 219.769531 332.128906 213.53125 333.039063 207.609375 "/>
<path style=" stroke:none;fill-rule:nonzero;fill:rgb(5.099487%,5.099487%,5.099487%);fill-opacity:1;" d="M 432.039063 192.988281 C 432.601563 193.738281 433.160156 194.5 433.71875 195.25 C 432.660156 202.371094 431.371094 209.460938 429.601563 216.441406 C 423.539063 220.039063 417.890625 224.789063 410.851563 226.300781 C 409.050781 226.859375 407.261719 226.210938 405.539063 225.710938 C 412.300781 224.609375 419.179688 221.988281 423.648438 216.570313 C 429.089844 210 431.449219 201.371094 432.039063 192.988281 "/>
<path style=" stroke:none;fill-rule:nonzero;fill:rgb(5.099487%,5.099487%,5.099487%);fill-opacity:1;" d="M 212.820313 201.730469 C 221.25 199.441406 230.25 200.441406 238.488281 203.03125 C 238.769531 206.789063 238.480469 210.660156 236.460938 213.941406 C 227.390625 205.800781 214.871094 214.660156 204.71875 209.859375 C 205.238281 205.648438 208.898438 202.710938 212.820313 201.730469 "/>
<path style=" stroke:none;fill-rule:nonzero;fill:rgb(98.826599%,98.826599%,98.826599%);fill-opacity:1;" d="M 83.28125 219.039063 C 84.410156 216.488281 85.820313 214.058594 87.75 212.039063 C 87.28125 215.070313 86.410156 218.078125 84.488281 220.539063 C 84.191406 220.160156 83.582031 219.410156 83.28125 219.039063 "/>
<path style=" stroke:none;fill-rule:nonzero;fill:rgb(98.826599%,98.826599%,98.826599%);fill-opacity:1;" d="M 267.980469 227.878906 C 286.730469 223.070313 304.960938 216.351563 323.898438 212.21875 C 323.78125 220.371094 319.851563 228.46875 312.820313 232.820313 C 300.480469 240.648438 285.308594 241.480469 272.238281 247.679688 C 270.589844 241.128906 269.75 234.398438 267.980469 227.878906 "/>
<path style=" stroke:none;fill-rule:nonzero;fill:rgb(98.826599%,98.826599%,98.826599%);fill-opacity:1;" d="M 88.679688 241.808594 C 88.800781 234.25 92.699219 227.351563 96.871094 221.269531 C 99.398438 230.839844 96.980469 240.859375 94.449219 250.171875 C 91.160156 248.691406 88.460938 245.621094 88.679688 241.808594 "/>
<path style=" stroke:none;fill-rule:nonzero;fill:rgb(98.826599%,98.826599%,98.826599%);fill-opacity:1;" d="M 342.03125 235.171875 C 347.378906 232.121094 353.410156 230.328125 359.539063 229.890625 C 349.191406 238.328125 346.710938 254.589844 333.011719 259.160156 C 331.441406 255.691406 330.121094 251.871094 331 248.019531 C 332.261719 242.210938 337.058594 237.980469 342.03125 235.171875 "/>
<path style=" stroke:none;fill-rule:nonzero;fill:rgb(98.826599%,98.826599%,98.826599%);fill-opacity:1;" d="M 108.121094 254.398438 C 107.128906 246.578125 102.71875 236.371094 109.871094 230.21875 C 113.628906 234.011719 118.671875 235.890625 123.75 237.128906 C 124.308594 241.96875 120.800781 245.769531 119.398438 250.121094 C 118.589844 252.558594 119.808594 254.960938 120.761719 257.148438 C 116.679688 255.710938 112.609375 253.371094 108.121094 254.398438 "/>
<path style=" stroke:none;fill-rule:nonzero;fill:rgb(98.826599%,98.826599%,98.826599%);fill-opacity:1;" d="M 217.921875 240.460938 C 231.398438 237.429688 244.898438 234.449219 258.578125 232.398438 C 260.519531 238.949219 261.179688 245.789063 263.011719 252.359375 C 252.511719 253.488281 242.558594 257.328125 232.128906 258.808594 C 226.058594 259.730469 219.890625 259.640625 213.789063 259.160156 C 213.851563 253.339844 213.679688 247.53125 213.839844 241.71875 C 214.980469 240.851563 216.578125 240.878906 217.921875 240.460938 "/>
<path style=" stroke:none;fill-rule:nonzero;fill:rgb(98.826599%,98.826599%,98.826599%);fill-opacity:1;" d="M 128.96875 254.960938 C 133.339844 250.730469 130.75 243.761719 134.589844 239.238281 C 144.121094 244.53125 155.558594 241.429688 165.570313 245.109375 C 162.058594 249.070313 164.871094 254.511719 164.308594 259.199219 C 152.460938 259.171875 140.140625 259.539063 128.96875 254.960938 "/>
<path style=" stroke:none;fill-rule:nonzero;fill:rgb(98.826599%,98.826599%,98.826599%);fill-opacity:1;" d="M 175.949219 243.828125 C 185.699219 245.171875 195.03125 241.199219 204.71875 241.179688 C 204.769531 247.179688 204.730469 253.191406 204.75 259.191406 C 194.21875 259.210938 183.699219 259.238281 173.171875 259.179688 C 171.789063 253.679688 176.320313 249.25 175.949219 243.828125 "/>
<path style=" stroke:none;fill-rule:nonzero;fill:rgb(98.826599%,98.826599%,98.826599%);fill-opacity:1;" d="M 276.800781 263.980469 C 292.460938 260.179688 307.199219 253.46875 321.460938 246.109375 C 320.160156 254.050781 321.988281 262.660156 328.121094 268.210938 C 313.691406 276.550781 301.238281 288.070313 285.96875 294.988281 C 285.78125 285.910156 277.609375 279.730469 276.710938 270.878906 C 276.359375 268.578125 276.621094 266.269531 276.800781 263.980469 "/>
<path style=" stroke:none;fill-rule:nonzero;fill:rgb(98.826599%,98.826599%,98.826599%);fill-opacity:1;" d="M 222.78125 279.660156 C 238.28125 277.699219 252.910156 271.921875 267.378906 266.300781 C 266.988281 271.5 266.878906 276.96875 269.28125 281.75 C 272.058594 287.519531 275.929688 292.921875 276.738281 299.449219 C 263.148438 302.789063 250.101563 308.53125 236.058594 309.820313 C 231.769531 310.328125 227.449219 309.71875 223.269531 308.78125 C 224.988281 299.109375 221.261719 289.390625 222.78125 279.660156 "/>
<path style=" stroke:none;fill-rule:nonzero;fill:rgb(98.826599%,98.826599%,98.826599%);fill-opacity:1;" d="M 85.550781 281.328125 C 84.628906 279.511719 84.761719 277.449219 85.089844 275.511719 C 87.25 280.578125 90.988281 284.78125 93.140625 289.851563 C 94.28125 292.238281 93.691406 294.921875 92.667969 297.230469 C 91.460938 291.441406 87.941406 286.621094 85.550781 281.328125 "/>
<path style=" stroke:none;fill-rule:nonzero;fill:rgb(98.826599%,98.826599%,98.826599%);fill-opacity:1;" d="M 103.078125 281.621094 C 110.148438 288.109375 113.859375 297.261719 116.769531 306.199219 C 111.269531 304.78125 105.480469 304.140625 100.339844 301.621094 C 98.800781 300.96875 98.320313 299.289063 97.71875 297.910156 C 98.558594 298.648438 99.378906 299.398438 100.199219 300.171875 C 101.960938 299.679688 104.019531 299.488281 105.269531 297.96875 C 107.289063 292.191406 99.371094 287.140625 103.078125 281.621094 "/>
<path style=" stroke:none;fill-rule:nonzero;fill:rgb(98.826599%,98.826599%,98.826599%);fill-opacity:1;" d="M 177.910156 286.46875 C 190.03125 287.53125 202.199219 285.5 213.78125 281.960938 C 214.390625 291.621094 211.519531 301.878906 215.578125 311.050781 C 204.859375 314.640625 193.421875 312.679688 182.359375 313 C 181.261719 304.089844 179.109375 295.359375 177.910156 286.46875 "/>
<path style=" stroke:none;fill-rule:nonzero;fill:rgb(98.826599%,98.826599%,98.826599%);fill-opacity:1;" d="M 119.25 286.179688 C 124.710938 285.800781 129.238281 289.988281 134.78125 289.121094 C 134.5 297.070313 140.21875 303.28125 141.640625 310.820313 C 136.46875 310.070313 130.980469 309.839844 126.480469 306.878906 C 127.070313 305.019531 128.109375 303 127.160156 301.058594 C 125.328125 295.691406 120.960938 291.621094 119.25 286.179688 "/>
<path style=" stroke:none;fill-rule:nonzero;fill:rgb(98.826599%,98.826599%,98.826599%);fill-opacity:1;" d="M 144.121094 288.601563 C 150.839844 287.03125 158.648438 286.121094 164.53125 290.511719 C 171.238281 295.941406 172.109375 305.21875 173.109375 313.191406 C 166.398438 313.46875 159.601563 313.101563 153.191406 310.921875 C 151.390625 303.011719 146.539063 296.289063 144.121094 288.601563 "/>
<path style=" stroke:none;fill-rule:nonzero;fill:rgb(5.099487%,5.099487%,5.099487%);fill-opacity:1;" d="M 305.71875 310.820313 C 316.640625 305.820313 327.878906 300.71875 339.980469 299.601563 C 320.449219 306.589844 302.378906 316.878906 283.609375 325.578125 C 259.351563 336.890625 233.148438 346.371094 206 345.199219 C 195.988281 344.019531 186.011719 346.089844 175.980469 345.988281 C 156.710938 345.761719 137.210938 348.148438 118.121094 344.390625 C 110.21875 342.679688 101.980469 339.648438 96.832031 333.070313 C 94.167969 329.910156 92.78125 325.941406 91.988281 321.941406 C 98.929688 333.601563 112.171875 339.179688 124.859375 342.058594 C 140.628906 345.417969 156.921875 346.53125 173 345.121094 C 194.558594 344.199219 216.398438 344.390625 237.511719 339.300781 C 261.609375 333.441406 283.488281 321.421875 305.71875 310.820313 "/>
<path style=" stroke:none;fill-rule:nonzero;fill:rgb(5.099487%,5.099487%,5.099487%);fill-opacity:1;" d="M 328.058594 313.210938 C 339.019531 307.808594 349.738281 300.640625 362.25 299.699219 C 348.660156 308.851563 333.851563 316.070313 318.960938 322.859375 C 260.339844 348.871094 196.050781 361.191406 132.03125 361.261719 C 119.289063 361.332031 106.300781 360.800781 94.050781 356.960938 C 84.332031 353.917969 75.25 347.808594 70.121094 338.851563 C 69.96875 335.070313 68.460938 330.878906 69.949219 327.300781 C 70.449219 327.011719 71.449219 326.441406 71.949219 326.148438 C 72.050781 330.75 71.980469 335.359375 72 339.960938 C 77.519531 345.53125 84.488281 349.460938 91.832031 352.101563 C 103.101563 356.25 115.101563 357.910156 127.019531 358.78125 C 145.75 359.910156 164.53125 358.75 183.171875 356.78125 C 233.628906 351.480469 282.808594 335.988281 328.058594 313.210938 "/>
<path style=" stroke:none;fill-rule:nonzero;fill:rgb(5.099487%,5.099487%,5.099487%);fill-opacity:1;" d="M 144.640625 331.460938 C 158.761719 331.582031 172.890625 331.238281 186.988281 331.71875 C 196.308594 331.738281 206.351563 329.082031 215.148438 333.21875 C 199.78125 332.550781 184.429688 333.769531 169.058594 333.800781 C 160.910156 333.582031 152.53125 333.789063 144.640625 331.460938 "/>
</g>
</svg>
